<mxfile host="Electron" modified="2023-11-05T11:02:36.269Z" agent="Mozilla/5.0 (Windows NT 10.0; Win64; x64) AppleWebKit/537.36 (KHTML, like Gecko) draw.io/21.2.8 Chrome/112.0.5615.165 Electron/24.2.0 Safari/537.36" etag="2lW1D1WabCBbuS-r5LgK" version="21.2.8" type="device">
  <diagram name="Page-1" id="Zy2wtVYq44WXkhXmX46X">
    <mxGraphModel dx="1665" dy="530" grid="1" gridSize="10" guides="1" tooltips="1" connect="1" arrows="1" fold="1" page="1" pageScale="1" pageWidth="827" pageHeight="1169" math="0" shadow="0">
      <root>
        <mxCell id="0" />
        <mxCell id="1" parent="0" />
        <mxCell id="ELrdVOIZssV8SabgfhjN-1" value="&lt;font style=&quot;font-size: 16px;&quot;&gt;total len&lt;/font&gt;" style="rounded=0;whiteSpace=wrap;html=1;fillColor=#f8cecc;strokeColor=#100f0f;strokeWidth=2;" parent="1" vertex="1">
          <mxGeometry x="-610" y="400" width="100" height="50" as="geometry" />
        </mxCell>
        <mxCell id="ELrdVOIZssV8SabgfhjN-5" value="&lt;font style=&quot;font-size: 16px;&quot;&gt;numbers of&lt;br&gt;elements&lt;br&gt;&lt;/font&gt;" style="rounded=0;whiteSpace=wrap;html=1;strokeWidth=2;fillColor=#fff2cc;strokeColor=#0d0d0c;" parent="1" vertex="1">
          <mxGeometry x="-510" y="400" width="100" height="50" as="geometry" />
        </mxCell>
        <mxCell id="ELrdVOIZssV8SabgfhjN-8" value="&lt;font style=&quot;font-size: 16px;&quot;&gt;entry&lt;/font&gt;" style="rounded=0;whiteSpace=wrap;html=1;strokeWidth=2;fillColor=#dae8fc;strokeColor=#000000;" parent="1" vertex="1">
          <mxGeometry x="-410" y="400" width="100" height="50" as="geometry" />
        </mxCell>
        <mxCell id="ELrdVOIZssV8SabgfhjN-26" value="&lt;span style=&quot;font-size: 16px;&quot;&gt;end&lt;/span&gt;" style="rounded=0;whiteSpace=wrap;html=1;strokeWidth=2;fillColor=#bac8d3;strokeColor=#000000;" parent="1" vertex="1">
          <mxGeometry x="-110" y="400" width="100" height="50" as="geometry" />
        </mxCell>
        <mxCell id="qeBazXhFk1fqBbKJ6Eil-3" value="" style="shape=curlyBracket;whiteSpace=wrap;html=1;rounded=1;labelPosition=left;verticalLabelPosition=middle;align=right;verticalAlign=middle;rotation=90;strokeWidth=2;" parent="1" vertex="1">
          <mxGeometry x="-572.25" y="331.25" width="25" height="97.5" as="geometry" />
        </mxCell>
        <mxCell id="qeBazXhFk1fqBbKJ6Eil-4" value="&lt;font style=&quot;font-size: 13px;&quot;&gt;4byte&lt;/font&gt;" style="text;html=1;align=center;verticalAlign=middle;resizable=0;points=[];autosize=1;strokeColor=none;fillColor=none;" parent="1" vertex="1">
          <mxGeometry x="-589.75" y="338" width="60" height="30" as="geometry" />
        </mxCell>
        <mxCell id="KYdiImv5aLlKBMS4GPAC-2" value="" style="shape=curlyBracket;whiteSpace=wrap;html=1;rounded=1;labelPosition=left;verticalLabelPosition=middle;align=right;verticalAlign=middle;rotation=90;strokeWidth=2;" vertex="1" parent="1">
          <mxGeometry x="-472.25" y="331.25" width="25" height="97.5" as="geometry" />
        </mxCell>
        <mxCell id="KYdiImv5aLlKBMS4GPAC-3" value="&lt;font style=&quot;font-size: 13px;&quot;&gt;4byte&lt;/font&gt;" style="text;html=1;align=center;verticalAlign=middle;resizable=0;points=[];autosize=1;strokeColor=none;fillColor=none;" vertex="1" parent="1">
          <mxGeometry x="-489.75" y="338" width="60" height="30" as="geometry" />
        </mxCell>
        <mxCell id="KYdiImv5aLlKBMS4GPAC-5" value="&lt;font style=&quot;font-size: 16px;&quot;&gt;...&lt;/font&gt;" style="rounded=0;whiteSpace=wrap;html=1;strokeWidth=2;fillColor=#dae8fc;strokeColor=#000000;" vertex="1" parent="1">
          <mxGeometry x="-310" y="400" width="100" height="50" as="geometry" />
        </mxCell>
        <mxCell id="KYdiImv5aLlKBMS4GPAC-6" value="&lt;font style=&quot;font-size: 16px;&quot;&gt;entry&lt;/font&gt;" style="rounded=0;whiteSpace=wrap;html=1;strokeWidth=2;fillColor=#dae8fc;strokeColor=#000000;" vertex="1" parent="1">
          <mxGeometry x="-210" y="400" width="100" height="50" as="geometry" />
        </mxCell>
        <mxCell id="KYdiImv5aLlKBMS4GPAC-8" value="" style="shape=curlyBracket;whiteSpace=wrap;html=1;rounded=1;labelPosition=left;verticalLabelPosition=middle;align=right;verticalAlign=middle;rotation=90;strokeWidth=2;" vertex="1" parent="1">
          <mxGeometry x="-72.25" y="331.25" width="25" height="97.5" as="geometry" />
        </mxCell>
        <mxCell id="KYdiImv5aLlKBMS4GPAC-9" value="&lt;font style=&quot;font-size: 13px;&quot;&gt;1byte&lt;/font&gt;" style="text;html=1;align=center;verticalAlign=middle;resizable=0;points=[];autosize=1;strokeColor=none;fillColor=none;" vertex="1" parent="1">
          <mxGeometry x="-89.75" y="338" width="60" height="30" as="geometry" />
        </mxCell>
      </root>
    </mxGraphModel>
  </diagram>
</mxfile>
